<svg version="1.1" id="Layer_1" xmlns="http://www.w3.org/2000/svg" xmlns:xlink="http://www.w3.org/1999/xlink" x="0px" y="0px"
	 width="100%" viewBox="0 0 1024 1024" enable-background="new 0 0 1024 1024" xml:space="preserve">
<path fill="#000000" opacity="1.000000" stroke="none" 
	d="
M630.158325,249.158646 
	C638.358032,241.211578 646.308472,233.515182 654.340088,225.740219 
	C655.849609,227.619507 655.329590,229.166336 655.331848,230.587540 
	C655.364563,251.581207 655.210938,272.576202 655.396423,293.568237 
	C655.526855,308.329071 650.775024,320.904968 640.197998,331.307587 
	C624.400208,346.844910 608.659058,362.440338 592.977783,378.095215 
	C584.234436,386.823853 578.195679,396.797241 578.284302,409.770386 
	C578.472046,437.268036 607.636902,456.391754 632.911011,445.443695 
	C639.109680,442.758575 644.368286,438.833221 649.143066,434.032471 
	C664.529236,418.562744 679.765991,402.949646 695.657349,387.974579 
	C705.874451,378.346588 718.152954,375.195465 731.314209,374.931305 
	C753.796326,374.480072 776.294250,374.812622 798.785522,374.840820 
	C799.395996,374.841583 800.006104,375.127106 800.543030,375.261475 
	C801.214539,377.350891 799.669434,378.213501 798.700928,379.179718 
	C764.971130,412.831604 731.985046,447.248566 697.055664,479.668793 
	C683.192810,492.535828 666.163086,499.046204 647.069946,499.323944 
	C634.751892,499.503143 622.428955,499.457977 610.109070,499.379944 
	C572.181702,499.139771 533.817383,465.278687 529.772888,427.401001 
	C527.568848,406.760101 526.855408,385.852142 530.572815,365.254089 
	C533.383667,349.679443 542.112854,336.870575 553.068420,325.922424 
	C578.635437,300.372589 604.655029,275.275726 630.158325,249.158646 
z"/>
<path fill="#000000" opacity="1.000000" stroke="none" 
	d="
M387.001343,499.366058 
	C361.312469,500.581604 340.361542,491.211395 322.759308,473.670471 
	C291.248993,442.269836 259.794098,410.813538 228.330429,379.366119 
	C227.549103,378.585236 226.412018,377.962494 226.582367,376.131775 
	C230.483109,375.007416 234.690292,375.310852 238.658890,375.468628 
	C258.489044,376.256927 278.288269,374.644440 298.102539,375.034973 
	C311.267212,375.294464 322.883301,379.392639 332.245544,389.050476 
	C337.694031,394.670898 343.312225,400.126556 348.835358,405.675018 
	C359.060608,415.947113 369.036133,426.481903 379.552246,436.446564 
	C391.314972,447.592468 405.275146,451.492645 420.974426,446.311768 
	C436.466095,441.199493 444.906616,429.583252 447.355499,414.051300 
	C449.656219,399.459015 443.487427,387.455872 433.199463,377.311768 
	C418.370941,362.690460 403.797058,347.807007 388.802155,333.359589 
	C376.538239,321.543457 370.836609,307.588898 371.354004,290.461456 
	C371.966583,270.182678 371.538055,249.872513 371.570465,229.575974 
	C371.572540,228.267776 371.312714,226.904495 372.229980,225.622971 
	C374.142700,225.535400 374.981567,227.184265 376.060913,228.259796 
	C408.868774,260.952057 441.724640,293.596832 474.375305,326.445618 
	C486.267365,338.409790 494.445618,352.682220 496.923553,369.544403 
	C498.716827,381.747253 498.025604,394.140533 498.053101,406.460297 
	C498.071686,414.781647 497.799042,423.034424 496.450623,431.314789 
	C491.766876,460.076660 459.360413,496.257965 422.966980,499.065002 
	C411.206787,499.972046 399.325653,499.310486 387.001343,499.366058 
z"/>
<path fill="#000000" opacity="1.000000" stroke="none" 
	d="
M692.739136,636.273804 
	C678.266479,621.745911 664.001892,607.511780 649.862366,593.154541 
	C636.257446,579.340088 618.361511,574.679260 602.537109,581.035217 
	C576.935181,591.318359 570.014954,624.740601 589.492920,644.362427 
	C606.272827,661.266296 623.066833,678.157959 640.023987,694.883362 
	C650.466125,705.182800 655.322876,717.610352 655.341370,732.094971 
	C655.368652,753.419617 655.362793,774.744263 655.322754,796.068848 
	C655.319458,797.820984 655.828613,799.700867 654.623047,801.380432 
	C652.603638,801.458557 651.774597,799.799988 650.668152,798.694946 
	C617.901306,765.965942 585.188110,733.183228 552.401611,700.473999 
	C536.525269,684.635071 528.329773,665.716309 528.631653,643.170715 
	C528.792236,631.177673 528.563110,619.179626 528.702515,607.186035 
	C529.136292,569.854553 562.196655,532.512695 599.286438,528.800232 
	C621.760071,526.550842 644.487488,525.633179 666.822693,530.647644 
	C678.897827,533.358643 689.509216,539.377075 698.307617,548.151062 
	C731.214722,580.966919 764.027100,613.877808 796.864868,646.763062 
	C797.783569,647.683105 798.998047,648.425232 799.139465,649.944763 
	C798.498230,651.723755 796.950867,651.106567 795.743713,651.111877 
	C773.756165,651.208435 751.768433,651.307861 729.780701,651.314941 
	C715.562378,651.319580 702.864014,647.403870 692.739136,636.273804 
z"/>
<path fill="#000000" opacity="1.000000" stroke="none" 
	d="
M491.935730,581.297729 
	C496.397919,592.971191 498.361267,604.719482 498.236816,616.796509 
	C498.099762,630.096680 498.693665,643.429016 496.605072,656.656006 
	C493.857483,674.056335 485.757782,688.656921 473.399536,700.993774 
	C440.974670,733.362427 408.509155,765.690369 376.048004,798.022644 
	C375.007416,799.059204 374.108093,800.339539 372.479767,800.639343 
	C370.801331,800.030518 371.075348,798.549805 371.084442,797.296326 
	C371.263947,772.518066 371.155426,747.731445 371.829163,722.966187 
	C372.109161,712.674622 376.898438,703.806702 384.299561,696.463318 
	C401.210815,679.683777 418.039001,662.820557 434.944061,646.034729 
	C449.048096,632.030273 452.152893,611.762573 442.299469,596.312012 
	C428.248169,574.279236 399.700226,571.011902 379.417206,590.420898 
	C365.337219,603.894226 351.388977,617.548767 338.101929,631.793945 
	C326.781708,643.930481 313.564056,650.979919 296.943665,651.083740 
	C274.617859,651.223206 252.290634,651.134644 229.964035,651.120300 
	C229.343674,651.119873 228.723480,650.849365 228.136078,650.712402 
	C227.451065,648.191589 229.488937,647.296509 230.657486,646.116211 
	C255.152130,621.373474 279.665100,596.648621 304.254486,572.000122 
	C313.194031,563.039124 321.978973,553.872681 331.479370,545.534790 
	C344.809235,533.835999 360.661530,527.847595 378.505890,527.661926 
	C390.002289,527.542236 401.500916,527.655212 412.998444,527.627380 
	C445.314941,527.549133 468.512756,543.394165 485.764893,569.450500 
	C488.139099,573.036255 489.786804,577.103027 491.935730,581.297729 
z"/>
</svg>